<?xml version="1.0" encoding="UTF-8" standalone="no"?>
<!-- Created with Inkscape (http://www.inkscape.org/) -->

<svg
   xmlns:dc="http://purl.org/dc/elements/1.1/"
   xmlns:cc="http://creativecommons.org/ns#"
   xmlns:rdf="http://www.w3.org/1999/02/22-rdf-syntax-ns#"
   xmlns:svg="http://www.w3.org/2000/svg"
   xmlns="http://www.w3.org/2000/svg"
   xmlns:sodipodi="http://sodipodi.sourceforge.net/DTD/sodipodi-0.dtd"
   xmlns:inkscape="http://www.inkscape.org/namespaces/inkscape"
   id="svg2"
   version="1.1"
   inkscape:version="0.91 r13725"
   width="488"
   height="199"
   viewBox="0 0 488 199"
   sodipodi:docname="logo_my2.svg">
  <metadata
     id="metadata8">
    <rdf:RDF>
      <cc:Work
         rdf:about="">
        <dc:format>image/svg+xml</dc:format>
        <dc:type
           rdf:resource="http://purl.org/dc/dcmitype/StillImage" />
        <dc:title></dc:title>
      </cc:Work>
    </rdf:RDF>
  </metadata>
  <defs
     id="defs6" />
  <sodipodi:namedview
     pagecolor="#ffffff"
     bordercolor="#666666"
     borderopacity="1"
     objecttolerance="10"
     gridtolerance="10"
     guidetolerance="10"
     inkscape:pageopacity="0"
     inkscape:pageshadow="2"
     inkscape:window-width="896"
     inkscape:window-height="745"
     id="namedview4"
     showgrid="false"
     fit-margin-top="0"
     fit-margin-left="0"
     fit-margin-right="0"
     fit-margin-bottom="0"
     inkscape:zoom="0.83844581"
     inkscape:cx="21.686877"
     inkscape:cy="225.88134"
     inkscape:window-x="37"
     inkscape:window-y="19"
     inkscape:window-maximized="0"
     inkscape:current-layer="svg2" />
  <path
     style="fill:#060606"
     d="M 104.5567,196.7775 C 103.17421,194.80372 103,183.89261 103,99.2775 103,5.33334 103.028,3.97202 105,2 c 1.97208,-1.97207 3.33333,-2 97.5,-2 94.16667,0 95.52792,0.0279 97.5,2 1.97201,1.97202 2,3.33334 2,97.2775 0,84.61511 -0.17421,95.52622 -1.5567,97.5 l -1.55671,2.22251 -96.38659,0 -96.38659,0 -1.55671,-2.22251 z m 148.1234,-47.36317 c 10.71675,-3.46112 16.25844,-10.97539 16.29794,-22.09922 0.0416,-11.7099 -3.87223,-16.5573 -18.97804,-23.50503 -15.35106,-7.06051 -17.39988,-8.30571 -18.44857,-11.21236 -0.74061,-2.05275 -0.56718,-3.00936 0.79107,-4.36343 2.61673,-2.60868 15.44077,-2.23205 22.56379,0.66268 2.97347,1.20838 5.94329,1.991 6.59962,1.73914 0.65633,-0.25186 2.46839,-3.45803 4.0268,-7.12484 3.28034,-7.71835 3.4617,-7.42342 -6.48459,-10.54562 -12.6325,-3.96542 -29.12334,-3.51873 -38.0404,1.03041 -5.00287,2.55228 -9.76482,8.19228 -10.57838,12.52891 -1.25894,6.71074 0.0116,14.21568 3.176,18.76008 2.50301,3.5946 5.13875,5.31881 17.90832,11.71496 12.41605,6.21908 15.13868,7.97868 15.94144,10.30277 1.13041,3.27267 0.0559,5.5413 -3.55326,7.50213 -3.51502,1.90969 -15.87155,0.86662 -25.21614,-2.1286 -5.9146,-1.89581 -7.93165,-2.19894 -8.29697,-1.24693 -0.26547,0.69179 -0.34903,4.59021 -0.1857,8.66315 l 0.29697,7.40535 4,1.31295 c 10.48663,3.44209 28.50886,3.72696 38.1801,0.6035 z m -95.66479,-16.16432 c 0.008,-9.2125 0.34592,-17.24445 0.75,-17.84877 0.40408,-0.60432 5.25215,-1.38785 10.77348,-1.74118 12.05835,-0.77164 18.64151,-2.58785 25.0805,-6.91937 6.25081,-4.20495 9.94638,-9.67586 11.98255,-17.73895 C 210.2446,70.61671 202.24106,54.92616 185.58496,49.75964 179.2556,47.79635 176.26037,47.55867 157.5,47.53099 l -21,-0.031 -0.25908,51.25 -0.25908,51.25 10.50908,0 10.50908,0 0.0153,-16.75 z m 1.09265,-39.04828 c -1.64247,-3.06898 -1.45536,-25.34437 0.23228,-27.65236 1.15246,-1.57607 2.37846,-1.76556 8.75,-1.35237 12.70227,0.82372 17.37643,4.8405 17.37643,14.93258 0,9.84334 -5.45591,14.48287 -18.29734,15.55945 -6.32836,0.53054 -7.053,0.39685 -8.06137,-1.4873 z m 163.25331,79.29736 C 320.9424,172.40753 369.49638,52.82895 378.30836,33.25 379.26331,31.12825 379.90699,31 389.6015,31 c 5.65426,0 10.51747,0.38349 10.80715,0.85219 0.28967,0.4687 -4.13745,12.0562 -9.83805,25.75 -5.70061,13.6938 -18.54355,44.69781 -28.53988,68.89782 -9.99632,24.2 -18.82802,45.0125 -19.62598,46.25 -1.33726,2.07385 -2.19523,2.25 -10.95918,2.25 -7.53195,0 -9.62805,-0.31198 -10.08429,-1.50092 z M 36.25,151.78588 0,135.69495 0,120.03269 0,104.37042 3.7500004,102.57945 C 17.684565,95.9244 72.235785,72 73.475732,72 74.752108,72 75,73.85033 75,83.37756 c 0,7.92636 -0.379167,11.66706 -1.25,12.33196 -0.6875,0.52493 -13.2875,5.81495 -28,11.75563 C 30.460739,113.6387 19,118.81051 19,119.53644 c 0,0.69854 5.920096,3.67611 13.155768,6.61682 7.235673,2.94071 19.723173,8.05107 27.75,11.35635 l 14.594232,6.0096 0.280779,12.2404 c 0.216843,9.45317 -0.01086,12.22637 -1,12.1788 C 73.07635,167.90453 56.1875,160.63589 36.25,151.78588 Z m 376.1829,14.89986 c -0.27738,-0.72284 -0.37576,-6.20907 -0.21862,-12.19161 L 412.5,143.61678 440,132.37613 c 25.58709,-10.45876 30.5483,-13.1675 26.79909,-14.63186 C 456.3431,113.66037 416.79863,97.41529 414.75,96.36223 L 412,94.94864 412,83.47432 C 412,73.44768 412.20954,72 413.66086,72 c 1.5281,0 58.68381,25.1726 69.58914,30.64855 l 4.75,2.38514 0,14.95749 0,14.95747 -2.94867,1.52481 c -3.98162,2.05898 -70.87374,31.52655 -71.56605,31.52655 -0.30143,0 -0.775,-0.59142 -1.05238,-1.31427 z"
     id="path3338"
     inkscape:connector-curvature="0" />
</svg>
